<svg fill="#222222" xmlns="http://www.w3.org/2000/svg" xmlns:xlink="http://www.w3.org/1999/xlink" version="1.1" x="0px" y="0px" viewBox="0 0 32 32" enable-background="new 0 0 32 32" xml:space="preserve"><g><path d="M25.192,16.707l-1.928-1.928c0.079,1.232-0.122,2.478-0.61,3.633l0.416,0.416c1.17,1.17,1.17,3.073,0,4.243   s-3.073,1.17-4.243,0l-3.536-3.536l-0.707-0.707c-1.17-1.17-1.17-3.073,0-4.243l0.707-0.707l-2.121-2.121l-0.707,0.707   c-2.343,2.343-2.343,6.142,0,8.485l4.243,4.243c2.343,2.343,6.142,2.343,8.485,0S27.536,19.05,25.192,16.707z"></path><path d="M9.345,13.588l-0.416-0.416c-1.17-1.17-1.17-3.073,0-4.243s3.073-1.17,4.243,0l3.536,3.536l0.707,0.707   c1.17,1.17,1.17,3.073,0,4.243l-0.707,0.707l2.121,2.121l0.707-0.707c2.343-2.343,2.343-6.142,0-8.485l-4.243-4.243   c-2.343-2.343-6.142-2.343-8.485,0s-2.343,6.142,0,8.485l1.928,1.928C8.657,15.988,8.858,14.743,9.345,13.588z"></path></g></svg>